<svg width="98" height="70" viewBox="0 0 98 70" fill="none" xmlns="http://www.w3.org/2000/svg">
<path d="M75.6656 2.32457C75.6656 3.42667 74.7263 4.3284 73.5783 4.3284H24.4217C23.2737 4.3284 22.3344 3.42667 22.3344 2.32457C22.3344 1.22246 23.2737 0.320732 24.4217 0.320732H73.5783C74.7263 0.320732 75.6656 1.22246 75.6656 2.32457Z" fill="#FAB72F"/>
<path d="M73.4739 2.32457H48.8957H24.3174C24.3174 2.32457 17.8989 69.6033 48.8957 69.6033C80.9361 69.6033 73.4739 2.32457 73.4739 2.32457Z" fill="#FFD759"/>
<path d="M49 44.5303C58.1503 44.5303 65.5682 37.4092 65.5682 28.6249C65.5682 19.8406 58.1503 12.7195 49 12.7195C39.8497 12.7195 32.4318 19.8406 32.4318 28.6249C32.4318 37.4092 39.8497 44.5303 49 44.5303Z" fill="#FAB72F"/>
<path d="M28.1528 47.8367C17.0639 41.3242 5.60969 25.2184 5.03567 15.3745C4.87912 12.8196 5.60969 10.5653 6.96645 9.53837C9.15814 7.91026 11.1411 7.88521 13.2545 8.28597C16.7247 8.96227 19.6731 11.1915 21.7343 13.3707C21.656 13.3707 21.6038 13.3457 21.5256 13.3457C20.1688 13.3457 19.0729 14.3977 19.0729 15.7002C19.0729 17.0027 20.1688 18.0547 21.5256 18.0547C22.7258 18.0547 23.7433 17.203 23.926 16.1009C24.2913 16.652 24.5783 17.1529 24.7609 17.5287L25.0218 15.9256C24.8653 15.5499 20.795 6.98348 14.0112 5.35537C11.8195 4.82936 9.67997 4.85441 7.54046 5.70604C7.41001 3.8024 5.76624 2.32457 3.78327 2.32457C1.69595 2.32457 -5.72205e-06 3.95268 -5.72205e-06 5.95652C-5.72205e-06 7.70987 1.30458 9.1877 3.02662 9.53837C2.24387 10.9912 1.72204 12.9699 1.87859 15.5248C2.4526 25.3687 11.8978 38.5188 24.213 46.5843C22.7258 46.7345 21.5516 47.9619 21.5516 49.4397C21.5516 51.0177 22.8823 52.2952 24.5261 52.2952C26.1699 52.2952 27.5005 51.0177 27.5005 49.4397C27.5005 49.1141 27.4483 48.7885 27.3179 48.4879C27.5788 48.6382 27.8658 48.7885 28.1267 48.9388V47.8367H28.1528ZM98 5.95652C98 3.95268 96.304 2.32457 94.2167 2.32457C92.2077 2.32457 90.5639 3.82744 90.4334 5.73109C88.2417 4.80431 86.0501 4.77926 83.8062 5.30527C77.0224 6.93339 72.9521 15.5248 72.7955 15.8755L73.0564 17.4786C73.2391 17.1028 73.5261 16.6269 73.8914 16.0508C74.074 17.1529 75.0916 18.0046 76.2918 18.0046C77.6486 18.0046 78.7444 16.9526 78.7444 15.6501C78.7444 14.3476 77.6486 13.2956 76.2918 13.2956C76.2135 13.2956 76.1613 13.3206 76.0831 13.3206C78.1443 11.1414 81.0926 8.93722 84.5628 8.23588C86.6762 7.81006 88.6592 7.83511 90.8509 9.48828C92.2338 10.5152 92.9382 12.7696 92.7817 15.3244C92.2077 25.1933 80.7796 41.2741 69.6645 47.7866V48.8887C69.9255 48.7384 70.2125 48.5881 70.4734 48.4378C70.369 48.7384 70.2907 49.064 70.2907 49.3896C70.2907 50.9676 71.6214 52.2451 73.2652 52.2451C74.9089 52.2451 76.2396 50.9676 76.2396 49.3896C76.2396 47.9118 75.0655 46.7095 73.5783 46.5342C85.8935 38.4687 95.3647 25.3436 95.9127 15.4747C96.0692 12.9449 95.5213 10.9661 94.7646 9.51332C96.6171 9.28789 98 7.78502 98 5.95652Z" fill="#FFD759"/>
<path d="M52.6107 18.4236V40.0754H47.3581V23.3079H47.2305L42.3606 26.2681V21.7432L47.7302 18.4236H52.6107Z" fill="black"/>
</svg>
