<svg width="117" height="114" viewBox="0 0 117 114" fill="none" xmlns="http://www.w3.org/2000/svg">
<path d="M79.7268 3.62018H58.3846H37.0424C37.0424 3.62018 31.469 62.901 58.3846 62.901C86.2065 62.901 79.7268 3.62018 79.7268 3.62018Z" fill="#FFD759"/>
<path d="M81.6299 3.62018C81.6299 4.59127 80.8143 5.3858 79.8174 5.3858H37.133C36.1362 5.3858 35.3205 4.59127 35.3205 3.62018C35.3205 2.64908 36.1362 1.85455 37.133 1.85455H79.8174C80.8143 1.85455 81.6299 2.64908 81.6299 3.62018Z" fill="#FAB72F"/>
<path d="M58.4752 40.8087C66.4208 40.8087 72.8619 34.5341 72.8619 26.794C72.8619 19.0539 66.4208 12.7794 58.4752 12.7794C50.5297 12.7794 44.0885 19.0539 44.0885 26.794C44.0885 34.5341 50.5297 40.8087 58.4752 40.8087Z" fill="#FAB72F"/>
<path d="M40.3729 43.7219C30.744 37.9837 20.7979 23.7924 20.2994 15.1188C20.1635 12.8676 20.7979 10.8813 21.976 9.97643C23.8791 8.54186 25.601 8.51979 27.4362 8.87291C30.4494 9.46881 33.0096 11.4331 34.7994 13.3532C34.7315 13.3532 34.6862 13.3311 34.6182 13.3311C33.4401 13.3311 32.4885 14.2581 32.4885 15.4057C32.4885 16.5534 33.4401 17.4803 34.6182 17.4803C35.6604 17.4803 36.544 16.7299 36.7026 15.7589C37.0198 16.2444 37.269 16.6858 37.4276 17.0169L37.6541 15.6044C37.5182 15.2733 33.9838 7.72526 28.0932 6.29069C26.1901 5.82721 24.3323 5.84928 22.4744 6.59967C22.3612 4.92233 20.9338 3.62018 19.2119 3.62018C17.3994 3.62018 15.9268 5.05475 15.9268 6.82037C15.9268 8.3653 17.0596 9.66744 18.5549 9.97643C17.8752 11.2565 17.4221 13.0001 17.558 15.2512C18.0565 23.9249 26.258 35.5118 36.9518 42.6184C35.6604 42.7508 34.6409 43.8323 34.6409 45.1344C34.6409 46.5249 35.7963 47.6505 37.2237 47.6505C38.651 47.6505 39.8065 46.5249 39.8065 45.1344C39.8065 44.8475 39.7612 44.5606 39.6479 44.2958C39.8744 44.4282 40.1237 44.5606 40.3502 44.693V43.7219H40.3729ZM101.024 6.82037C101.024 5.05475 99.551 3.62018 97.7385 3.62018C95.994 3.62018 94.5666 4.9444 94.4533 6.62174C92.5502 5.80514 90.6471 5.78307 88.6987 6.24655C82.808 7.68112 79.2737 15.2512 79.1377 15.5602L79.3643 16.9727C79.5229 16.6417 79.7721 16.2223 80.0893 15.7147C80.2479 16.6858 81.1315 17.4362 82.1737 17.4362C83.3518 17.4362 84.3034 16.5092 84.3034 15.3616C84.3034 14.2139 83.3518 13.287 82.1737 13.287C82.1057 13.287 82.0604 13.309 81.9924 13.309C83.7822 11.3889 86.3424 9.44674 89.3557 8.82877C91.1908 8.45358 92.9127 8.47565 94.8158 9.93229C96.0166 10.8372 96.6283 12.8235 96.4924 15.0747C95.994 23.7704 86.0705 37.9395 76.419 43.6778V44.6489C76.6455 44.5165 76.8948 44.384 77.1213 44.2516C77.0307 44.5165 76.9627 44.8034 76.9627 45.0903C76.9627 46.4807 78.1182 47.6063 79.5455 47.6063C80.9729 47.6063 82.1283 46.4807 82.1283 45.0903C82.1283 43.7881 81.1088 42.7288 79.8174 42.5743C90.5112 35.4676 98.7354 23.9028 99.2112 15.2071C99.3471 12.978 98.8713 11.2344 98.2143 9.95436C99.8229 9.75573 101.024 8.43151 101.024 6.82037Z" fill="#FFD759"/>
<path d="M52.3219 35.0239V32.2013L58.1922 27.016C58.6323 26.6143 59.0068 26.2469 59.3159 25.9139C59.625 25.5756 59.8608 25.2374 60.0232 24.8991C60.1856 24.5555 60.2668 24.1829 60.2668 23.7811C60.2668 23.3319 60.1699 22.9486 59.976 22.6315C59.7822 22.3091 59.515 22.0606 59.1745 21.8862C58.834 21.7118 58.4437 21.6246 58.0036 21.6246C57.5583 21.6246 57.168 21.7171 56.8327 21.9021C56.4974 22.0818 56.2354 22.3434 56.0468 22.687C55.8635 23.0306 55.7718 23.4481 55.7718 23.9397H52.0862C52.0862 22.835 52.3324 21.8809 52.8249 21.0775C53.3173 20.2741 54.0089 19.6556 54.8995 19.2222C55.7954 18.7835 56.8353 18.5641 58.0193 18.5641C59.24 18.5641 60.3009 18.7703 61.202 19.1826C62.1031 19.5948 62.7998 20.171 63.2923 20.911C63.79 21.6457 64.0389 22.4994 64.0389 23.4719C64.0389 24.0904 63.9157 24.7035 63.6695 25.3114C63.4233 25.9192 62.9806 26.5905 62.3414 27.3252C61.7075 28.0599 60.8064 28.94 59.6381 29.9654L57.7128 31.7573V31.8604H64.2353V35.0239H52.3219Z" fill="black"/>
</svg>
