<svg width="117" height="113" viewBox="0 0 117 113" fill="none" xmlns="http://www.w3.org/2000/svg">
<path d="M80.2082 3.08984H58.866H37.5238C37.5238 3.08984 31.9504 62.3707 58.866 62.3707C86.6879 62.3707 80.2082 3.08984 80.2082 3.08984Z" fill="#FFD759"/>
<path d="M82.1113 3.08984C82.1113 4.06094 81.2957 4.85547 80.2988 4.85547H37.6145C36.6176 4.85547 35.802 4.06094 35.802 3.08984C35.802 2.11875 36.6176 1.32422 37.6145 1.32422H80.2988C81.2957 1.32422 82.1113 2.11875 82.1113 3.08984Z" fill="#FAB72F"/>
<path d="M58.9567 40.2783C66.9022 40.2783 73.3434 34.0037 73.3434 26.2637C73.3434 18.5236 66.9022 12.249 58.9567 12.249C51.0111 12.249 44.5699 18.5236 44.5699 26.2637C44.5699 34.0037 51.0111 40.2783 58.9567 40.2783Z" fill="#FAB72F"/>
<path d="M40.8543 43.1916C31.2254 37.4533 21.2793 23.2621 20.7809 14.5885C20.645 12.3373 21.2793 10.351 22.4575 9.44609C24.3606 8.01152 26.0825 7.98945 27.9176 8.34258C30.9309 8.93848 33.491 10.9027 35.2809 12.8229C35.2129 12.8229 35.1676 12.8008 35.0996 12.8008C33.9215 12.8008 32.97 13.7277 32.97 14.8754C32.97 16.023 33.9215 16.95 35.0996 16.95C36.1418 16.95 37.0254 16.1996 37.184 15.2285C37.5012 15.7141 37.7504 16.1555 37.909 16.4865L38.1356 15.074C37.9996 14.743 34.4653 7.19492 28.5746 5.76035C26.6715 5.29688 24.8137 5.31895 22.9559 6.06934C22.8426 4.39199 21.4153 3.08984 19.6934 3.08984C17.8809 3.08984 16.4082 4.52441 16.4082 6.29004C16.4082 7.83496 17.541 9.13711 19.0364 9.44609C18.3567 10.7262 17.9035 12.4697 18.0395 14.7209C18.5379 23.3945 26.7395 34.9814 37.4332 42.0881C36.1418 42.2205 35.1223 43.302 35.1223 44.6041C35.1223 45.9945 36.2778 47.1201 37.7051 47.1201C39.1325 47.1201 40.2879 45.9945 40.2879 44.6041C40.2879 44.3172 40.2426 44.0303 40.1293 43.7654C40.3559 43.8979 40.6051 44.0303 40.8317 44.1627V43.1916H40.8543ZM101.505 6.29004C101.505 4.52441 100.032 3.08984 98.2199 3.08984C96.4754 3.08984 95.0481 4.41406 94.9348 6.09141C93.0317 5.2748 91.1285 5.25273 89.1801 5.71621C83.2895 7.15078 79.7551 14.7209 79.6192 15.0299L79.8457 16.4424C80.0043 16.1113 80.2535 15.692 80.5707 15.1844C80.7293 16.1555 81.6129 16.9059 82.6551 16.9059C83.8332 16.9059 84.7848 15.9789 84.7848 14.8312C84.7848 13.6836 83.8332 12.7566 82.6551 12.7566C82.5871 12.7566 82.5418 12.7787 82.4739 12.7787C84.2637 10.8586 86.8239 8.91641 89.8371 8.29844C91.6723 7.92324 93.3942 7.94531 95.2973 9.40195C96.4981 10.3068 97.1098 12.2932 96.9739 14.5443C96.4754 23.24 86.552 37.4092 76.9004 43.1475V44.1185C77.127 43.9861 77.3762 43.8537 77.6028 43.7213C77.5121 43.9861 77.4442 44.273 77.4442 44.56C77.4442 45.9504 78.5996 47.076 80.027 47.076C81.4543 47.076 82.6098 45.9504 82.6098 44.56C82.6098 43.2578 81.5903 42.1984 80.2989 42.0439C90.9926 34.9373 99.2168 23.3725 99.6926 14.6768C99.8285 12.4477 99.3528 10.7041 98.6957 9.42402C100.304 9.22539 101.505 7.90117 101.505 6.29004Z" fill="#FFD759"/>
<path d="M58.2408 32.4778C57.3544 32.4778 56.5684 32.3249 55.8828 32.0192C55.201 31.7096 54.6631 31.2835 54.2692 30.7408C53.8753 30.1981 53.6745 29.5733 53.6669 28.8663H56.4965C56.5078 29.1223 56.5893 29.3497 56.7408 29.5484C56.8923 29.7433 57.0987 29.8962 57.3601 30.007C57.6215 30.1179 57.9188 30.1733 58.2522 30.1733C58.5855 30.1733 58.8791 30.114 59.1328 29.9956C59.3904 29.8733 59.5912 29.707 59.7351 29.4968C59.8791 29.2828 59.9491 29.0382 59.9453 28.7631C59.9491 28.4879 59.8715 28.2433 59.7124 28.0293C59.5533 27.8153 59.3279 27.649 59.0362 27.5306C58.7484 27.4121 58.4075 27.3529 58.0135 27.3529H56.8828V25.335H58.0135C58.3582 25.335 58.6612 25.2777 58.9226 25.163C59.1878 25.0484 59.3942 24.8879 59.5419 24.6815C59.6897 24.4713 59.7616 24.2305 59.7578 23.9592C59.7616 23.6955 59.6991 23.4643 59.5703 23.2656C59.4453 23.063 59.2692 22.9063 59.0419 22.7955C58.8184 22.6847 58.559 22.6292 58.2635 22.6292C57.9529 22.6292 57.6707 22.6847 57.4169 22.7955C57.1669 22.9063 56.9681 23.063 56.8203 23.2656C56.6726 23.4681 56.595 23.7031 56.5874 23.9707H53.8999C53.9075 23.2713 54.1006 22.656 54.4794 22.1248C54.8582 21.5897 55.3734 21.1713 56.0249 20.8693C56.6802 20.5674 57.4264 20.4165 58.2635 20.4165C59.0969 20.4165 59.8298 20.5636 60.4624 20.8579C61.095 21.1522 61.5874 21.5534 61.9397 22.0617C62.2919 22.5662 62.4681 23.1375 62.4681 23.7757C62.4719 24.4369 62.2578 24.9815 61.826 25.4095C61.398 25.8376 60.8469 26.1013 60.1726 26.2006V26.2923C61.0741 26.3993 61.7541 26.6936 62.2124 27.1751C62.6745 27.6567 62.9037 28.2586 62.8999 28.9809C62.8999 29.6612 62.701 30.265 62.3033 30.7924C61.9094 31.316 61.3601 31.7287 60.6556 32.0306C59.9548 32.3287 59.1499 32.4778 58.2408 32.4778Z" fill="black"/>
</svg>
